<?xml version="1.0" standalone="no"?>
<!DOCTYPE svg PUBLIC "-//W3C//DTD SVG 20010904//EN"
 "http://www.w3.org/TR/2001/REC-SVG-20010904/DTD/svg10.dtd">
<svg version="1.0" xmlns="http://www.w3.org/2000/svg"
 width="1280.000000pt" height="720.000000pt" viewBox="0 0 1280.000000 720.000000"
 preserveAspectRatio="xMidYMid meet">

<g transform="translate(0.000000,720.000000) scale(0.100000,-0.100000)"
fill="#000000" stroke="none">
<path d="M2046 5240 c-247 -28 -466 -108 -674 -246 -118 -79 -301 -262 -381
-383 -158 -239 -233 -463 -248 -746 -21 -424 153 -849 465 -1134 l77 -71 3 86
3 85 -67 72 c-189 204 -305 460 -342 751 -32 253 19 518 145 758 126 239 347
452 592 570 195 93 352 128 581 128 361 0 689 -143 943 -410 426 -447 484
-1116 143 -1630 -35 -52 -94 -128 -130 -167 l-67 -72 3 -85 3 -86 77 71 c399
364 557 922 413 1463 -100 376 -404 735 -771 911 -227 109 -530 162 -768 135z"/>
<path d="M1300 4070 l0 -339 38 -10 c42 -10 49 -12 377 -81 132 -28 272 -58
310 -66 170 -37 140 -39 473 31 169 36 352 75 407 86 55 12 117 26 138 31 l37
9 0 339 c0 289 -2 340 -14 340 -14 0 -132 -25 -168 -36 -16 -5 -18 -24 -18
-220 0 -118 -3 -214 -7 -214 -5 -1 -56 -11 -115 -24 l-108 -24 0 194 c0 149
-3 194 -12 194 -11 0 -46 -8 -165 -35 -23 -5 -23 -6 -23 -199 l0 -194 -97 -23
c-124 -29 -192 -29 -320 1 l-103 23 -2 195 -3 196 -80 18 c-127 28 -115 47
-115 -173 l0 -192 -38 6 c-20 4 -70 14 -110 23 l-72 16 0 213 c0 195 -2 214
-17 219 -42 12 -156 36 -174 36 -18 0 -19 -10 -19 -340z"/>
<path d="M6804 3801 c-71 -33 -115 -111 -116 -203 -1 -78 28 -128 91 -154 131
-55 271 52 271 208 0 104 -48 157 -148 164 -43 4 -67 0 -98 -15z m123 -76 c48
-33 37 -143 -18 -189 -85 -72 -160 17 -113 134 25 62 85 87 131 55z"/>
<path d="M9084 3806 c-44 -20 -74 -62 -74 -106 0 -54 29 -85 104 -110 72 -24
89 -45 56 -72 -31 -25 -63 -22 -98 7 -20 17 -42 25 -66 25 -31 0 -36 -3 -36
-23 0 -49 75 -97 152 -97 94 0 168 69 154 145 -8 42 -30 60 -101 85 -75 26
-89 44 -59 74 24 25 69 20 92 -9 15 -18 29 -25 55 -25 46 0 53 13 30 53 -35
60 -134 85 -209 53z"/>
<path d="M9924 3801 c-71 -33 -115 -111 -116 -203 -1 -78 28 -128 91 -154 131
-55 271 52 271 208 0 104 -48 157 -148 164 -43 4 -67 0 -98 -15z m123 -76 c48
-33 37 -143 -18 -189 -85 -72 -160 17 -113 134 25 62 85 87 131 55z"/>
<path d="M11764 3806 c-44 -20 -74 -62 -74 -106 0 -54 29 -85 104 -110 72 -24
89 -45 56 -72 -31 -25 -63 -22 -98 7 -20 17 -42 25 -66 25 -31 0 -36 -3 -36
-23 0 -49 75 -97 152 -97 94 0 168 69 154 145 -8 43 -28 59 -106 87 -69 25
-88 50 -54 75 29 21 70 16 92 -12 15 -18 29 -25 55 -25 46 0 53 13 30 53 -35
60 -134 85 -209 53z"/>
<path d="M12124 3806 c-44 -20 -74 -62 -74 -106 0 -54 29 -85 104 -110 72 -24
89 -45 56 -72 -31 -25 -63 -22 -98 7 -20 17 -42 25 -66 25 -31 0 -36 -3 -36
-23 0 -49 75 -97 152 -97 94 0 168 69 154 145 -8 42 -30 60 -101 85 -75 26
-89 44 -59 74 24 25 69 20 92 -9 15 -18 29 -25 55 -25 46 0 53 13 30 53 -35
60 -134 85 -209 53z"/>
<path d="M4037 3633 c-20 -98 -37 -181 -37 -185 0 -5 20 -8 44 -8 l44 0 12 53
c6 28 14 60 16 69 4 14 19 18 77 20 l72 3 3 33 3 32 -65 0 c-72 0 -78 7 -56
64 9 25 13 26 84 26 77 0 86 5 86 51 0 18 -8 19 -123 19 l-123 0 -37 -177z"/>
<path d="M4392 3763 c-48 -231 -47 -220 -29 -258 43 -90 217 -99 277 -15 18
25 51 152 74 283 l7 37 -45 0 c-51 0 -45 12 -77 -144 -25 -117 -46 -156 -85
-156 -69 0 -77 29 -44 176 28 126 28 124 -24 124 l-44 0 -10 -47z"/>
<path d="M4782 3778 c-5 -18 -8 -34 -7 -36 2 -2 25 -4 51 -5 37 -2 49 -6 47
-17 -1 -8 -13 -71 -27 -139 -14 -68 -26 -127 -26 -132 0 -5 20 -9 44 -9 l44 0
21 98 c12 53 27 120 34 147 l12 50 49 1 c51 1 66 12 66 52 0 22 -1 22 -150 22
l-149 0 -9 -32z"/>
<path d="M5166 3793 c-14 -47 -46 -220 -46 -249 0 -70 78 -121 172 -112 95 10
129 53 163 211 14 65 28 129 31 143 6 23 4 24 -42 24 l-49 0 -27 -132 c-30
-144 -44 -168 -99 -168 -19 0 -34 8 -45 25 -15 22 -14 31 5 117 11 51 23 108
26 126 l7 32 -46 0 c-34 0 -46 -4 -50 -17z"/>
<path d="M5567 3778 c-3 -18 -19 -98 -36 -177 -17 -79 -31 -147 -31 -152 0 -5
20 -9 44 -9 l45 0 13 63 c13 55 17 62 40 65 24 3 28 -2 48 -62 l22 -66 49 0
c27 0 49 2 49 5 0 2 -11 34 -25 70 l-24 65 28 15 c16 8 36 30 45 49 24 52 20
91 -13 128 -29 33 -29 33 -139 36 l-109 4 -6 -34z m172 -47 c17 -11 18 -56 1
-76 -17 -21 -115 -21 -107 -1 3 8 9 31 13 50 6 34 9 36 43 36 20 0 42 -4 50
-9z"/>
<path d="M5946 3793 c-5 -16 -76 -344 -76 -350 0 -2 56 -3 125 -3 92 0 127 3
129 13 3 6 7 24 10 40 l6 27 -81 0 c-70 0 -80 2 -75 16 3 9 6 24 6 35 0 17 8
19 80 19 72 0 80 2 80 19 0 11 3 26 6 35 5 14 -5 16 -71 16 l-77 0 7 33 c4 17
9 35 11 39 2 3 39 6 81 6 73 0 78 1 84 23 14 50 16 49 -115 49 -110 0 -125 -2
-130 -17z"/>
<path d="M6377 3633 c-20 -98 -37 -181 -37 -185 0 -5 20 -8 44 -8 l44 0 12 53
c6 28 14 60 16 69 4 14 19 18 77 20 l72 3 3 33 3 32 -65 0 c-72 0 -78 7 -56
64 9 25 13 26 84 26 77 0 86 5 86 51 0 18 -8 19 -123 19 l-123 0 -37 -177z"/>
<path d="M7146 3738 c-8 -40 -26 -124 -40 -185 l-23 -113 47 0 48 0 12 65 c11
61 14 65 39 65 24 0 29 -6 47 -62 l20 -63 52 -3 51 -3 -24 68 -25 67 35 29
c45 37 61 92 41 141 -22 52 -58 66 -169 66 l-95 0 -16 -72z m182 -10 c17 -17
15 -54 -4 -72 -9 -10 -33 -16 -61 -16 l-45 0 7 33 c13 66 14 67 54 67 20 0 42
-5 49 -12z"/>
<path d="M7507 3778 c-2 -18 -3 -34 -2 -36 1 -1 22 -4 46 -6 24 -2 45 -8 46
-13 2 -5 -9 -71 -25 -146 l-29 -137 47 0 47 0 27 133 c15 72 30 140 32 149 4
13 16 16 54 15 27 0 51 1 54 4 2 2 7 19 11 37 l7 32 -155 0 -155 0 -5 -32z"/>
<path d="M7886 3793 c-14 -47 -46 -220 -46 -249 0 -70 78 -121 172 -112 95 10
129 53 163 211 14 65 28 129 31 143 6 23 4 24 -42 24 l-49 0 -27 -132 c-30
-144 -44 -168 -99 -168 -19 0 -34 8 -45 25 -15 22 -14 31 5 117 11 51 23 108
26 126 l7 32 -46 0 c-34 0 -46 -4 -50 -17z"/>
<path d="M8287 3778 c-3 -18 -19 -98 -36 -177 -17 -79 -31 -147 -31 -152 0 -5
19 -9 43 -9 l43 0 18 87 c29 139 27 138 77 47 24 -43 50 -91 58 -107 11 -21
21 -27 47 -27 27 0 35 5 39 23 2 12 18 87 35 167 17 80 32 153 34 163 3 14 -3
17 -39 17 -50 0 -51 -2 -76 -140 -8 -39 -16 -70 -20 -70 -3 0 -31 46 -60 103
-53 98 -56 102 -91 105 -33 3 -36 1 -41 -30z"/>
<path d="M8706 3793 c-5 -16 -76 -344 -76 -350 0 -2 56 -3 125 -3 92 0 127 3
129 13 3 6 7 24 10 40 l6 27 -81 0 c-70 0 -80 2 -75 16 3 9 6 24 6 35 0 17 8
19 80 19 72 0 80 2 80 19 0 11 3 26 6 35 5 14 -5 16 -71 16 l-77 0 7 33 c4 17
9 35 12 40 2 4 40 7 84 7 56 0 79 4 79 13 0 6 3 22 6 35 6 22 6 22 -119 22
-111 0 -126 -2 -131 -17z"/>
<path d="M9497 3633 c-20 -98 -37 -181 -37 -185 0 -5 20 -8 44 -8 l44 0 12 53
c6 28 14 60 16 69 4 14 19 18 77 20 l72 3 3 33 3 32 -65 0 c-72 0 -78 7 -56
64 9 25 13 26 84 26 77 0 86 5 86 51 0 18 -8 19 -123 19 l-123 0 -37 -177z"/>
<path d="M10266 3738 c-8 -40 -26 -124 -40 -185 l-23 -113 47 0 48 0 12 65
c11 61 14 65 39 65 24 0 29 -6 47 -62 l20 -63 52 -3 51 -3 -24 68 -25 67 35
29 c45 37 61 92 41 141 -22 52 -58 66 -169 66 l-95 0 -16 -72z m182 -10 c17
-17 15 -54 -4 -72 -9 -10 -33 -16 -61 -16 l-45 0 7 33 c13 66 14 67 54 67 20
0 42 -5 49 -12z"/>
<path d="M10627 3778 c-2 -18 -3 -34 -2 -36 1 -1 22 -4 46 -6 24 -2 45 -8 46
-13 2 -5 -9 -71 -25 -146 l-29 -137 47 0 47 0 27 133 c15 72 30 140 32 149 4
13 16 16 54 15 27 0 51 1 54 4 2 2 7 19 11 37 l7 32 -155 0 -155 0 -5 -32z"/>
<path d="M11007 3778 c-3 -18 -19 -98 -36 -177 -17 -79 -31 -147 -31 -152 0
-5 20 -9 44 -9 l45 0 13 63 c13 55 17 62 40 65 24 3 28 -2 48 -62 l22 -66 49
0 c27 0 49 2 49 5 0 2 -11 34 -25 70 l-24 65 28 15 c16 8 36 30 45 49 24 52
20 91 -13 128 -29 33 -29 33 -139 36 l-109 4 -6 -34z m172 -47 c17 -11 18 -56
1 -76 -17 -21 -115 -21 -107 -1 3 8 9 31 13 50 6 34 9 36 43 36 20 0 42 -4 50
-9z"/>
<path d="M11386 3793 c-5 -16 -76 -344 -76 -350 0 -2 56 -3 125 -3 92 0 127 3
129 13 3 6 7 24 10 40 l6 27 -81 0 c-70 0 -80 2 -75 16 3 9 6 24 6 35 0 17 8
19 80 19 72 0 80 2 80 19 0 11 3 26 6 35 5 14 -5 16 -71 16 l-77 0 7 33 c4 17
9 35 11 39 2 3 39 6 81 6 73 0 78 1 84 23 14 50 16 49 -115 49 -110 0 -125 -2
-130 -17z"/>
<path d="M1343 3153 c4 -520 4 -524 50 -649 62 -170 197 -332 356 -428 331
-200 761 -150 1035 121 111 110 180 227 228 385 21 70 22 92 26 571 2 273 0
497 -5 497 -4 0 -125 -25 -268 -55 -557 -119 -576 -123 -614 -114 -20 5 -144
31 -276 59 -132 28 -302 64 -377 80 -75 17 -142 30 -148 30 -8 0 -10 -132 -7
-497z"/>
<path d="M11783 1262 c-109 -39 -192 -121 -233 -229 -29 -76 -25 -203 8 -277
24 -52 87 -136 103 -136 18 0 9 32 -21 68 -116 146 -98 359 42 477 98 83 247
105 360 53 149 -69 232 -236 194 -389 -10 -39 -32 -86 -57 -122 -22 -32 -39
-65 -37 -75 5 -26 65 43 101 118 29 58 32 74 32 155 0 80 -4 97 -32 157 -38
81 -103 147 -181 184 -76 36 -202 43 -279 16z"/>
<path d="M11670 980 l0 -89 38 -10 c159 -41 189 -44 270 -26 42 9 94 21 115
26 l37 10 0 85 c0 83 -1 85 -22 82 -20 -3 -23 -10 -26 -60 -2 -32 -6 -58 -10
-58 -4 0 -17 -3 -29 -6 -22 -6 -23 -3 -23 45 0 34 -4 51 -12 51 -27 0 -37 -17
-40 -65 l-3 -50 -39 -3 c-22 -2 -50 -1 -63 2 -20 6 -23 12 -23 55 0 35 -4 51
-16 55 -30 11 -34 6 -34 -44 0 -52 -1 -53 -37 -44 -19 5 -22 14 -25 62 -3 51
-5 56 -30 63 l-28 7 0 -88z"/>
<path d="M11682 728 c3 -136 4 -145 31 -191 38 -65 93 -100 167 -105 71 -5
120 10 167 51 61 54 73 93 73 248 l0 135 -107 -22 -107 -23 -95 20 c-53 11
-104 22 -114 25 -18 6 -19 -2 -15 -138z"/>
</g>
</svg>
